<?xml version="1.0" encoding="utf-8"?>
<!-- Generator: Adobe Illustrator 27.5.0, SVG Export Plug-In . SVG Version: 6.00 Build 0)  -->
<svg version="1.1" id="Layer_1" xmlns="http://www.w3.org/2000/svg" xmlns:xlink="http://www.w3.org/1999/xlink" x="0px" y="0px"
	 viewBox="0 0 450 450" style="enable-background:new 0 0 450 450;" xml:space="preserve">
<g>
	<path style="opacity:0.25;fill:#ADB8E8;" d="M360.577,315.384c-0.242-0.315-0.568-0.556-0.906-0.749l-137.645-78.752
		c-0.484-0.278-0.991-0.472-1.547-0.593c-0.531-0.115-1.061-0.173-1.592-0.177l-3.199,0.001c-0.011,0-0.022,0-0.034,0
		c-0.521,0.005-1.066,0.064-1.588,0.177c-0.556,0.121-1.076,0.315-1.547,0.593L96.758,302.712l-6.429,3.711
		c-0.338,0.193-0.665,0.435-0.906,0.761c-0.242,0.315-0.411,0.701-0.423,1.1c0,0.012,0,0.025,0,0.037
		c0,0.108,0.012,0.217,0.036,0.326c0.145,0.617,0.738,1.173,1.293,1.487l137.645,78.752c0.471,0.278,0.991,0.471,1.547,0.592
		c0.53,0.115,1.059,0.173,1.588,0.177l3.694-0.027c0.377-0.025,0.754-0.068,1.131-0.15c0.556-0.121,1.076-0.314,1.547-0.592
		l6.429-3.71l115.762-66.83c0,0,1.125-0.513,1.293-1.487c0.019-0.11,0.036-0.217,0.036-0.326c0-0.012,0-0.037,0-0.049
		C360.988,316.085,360.819,315.71,360.577,315.384z"/>
	<g>
		<g>
			<polygon style="fill:#FFD562;" points="243.088,76.296 243.088,258.446 128.205,324.605 128.205,142.492 			"/>
			<path style="fill:#DB4B18;" d="M128.205,142.492v182.113c-0.293,0.183-0.622,0.292-0.988,0.365c-0.732,0.183-1.426,0.183-2.158,0
				c-0.33-0.073-0.695-0.183-0.988-0.365l-23.486-13.572c-0.805-0.476-0.841-1.061-0.841-1.171c0-55.79,0-126.14,0-181.893
				c0.11,0.402,0.475,0.732,0.841,0.951l23.486,13.572c0.293,0.146,0.659,0.292,0.988,0.366c0.732,0.147,1.426,0.147,2.158,0
				C127.583,142.785,127.912,142.639,128.205,142.492z"/>
			<path style="fill:#E0E4FF;" d="M238.919,77.11l-112.066,64.587c-0.11,0.037-0.22,0.073-0.366,0.11
				c-0.219,0.073-0.475,0.073-0.695,0c-0.11-0.037-0.219-0.073-0.329-0.11l-2.049-1.171l-20.743-11.999
				c33.364-19.28,79.397-45.71,112.798-64.989c0.476,0.256,0.915,0.549,1.354,0.768v0.036c6.768,3.914,12.695,7.317,19.389,11.195
				C237.09,76.049,238.005,76.561,238.919,77.11z"/>
			<path style="fill:#FFD562;" d="M216.821,61.151v3.146c-0.439-0.219-0.878-0.512-1.354-0.768
				c-33.4,19.279-79.434,45.71-112.798,64.989l-0.695-0.402c-0.073-0.037-0.146-0.073-0.22-0.146c-0.037-0.11-0.073-0.22-0.073-0.33
				c0.036-0.146,0.183-0.256,0.293-0.329L216.821,61.151z"/>
			<path style="fill:#FC6C44;" d="M215.467,60.346l1.354,0.805l-114.846,66.16c-0.11,0.073-0.257,0.183-0.293,0.329
				c0,0.11,0.036,0.219,0.073,0.33c0.074,0.073,0.147,0.11,0.22,0.146l0.695,0.402l22.791,13.17c0.11,0.037,0.219,0.073,0.33,0.11
				c0.219,0.073,0.475,0.073,0.695,0c0.147-0.037,0.257-0.073,0.366-0.11l112.066-64.587h0.037l2.744-1.61l1.39,0.805
				l-114.883,66.196c-0.293,0.146-0.622,0.292-0.988,0.366c-0.732,0.147-1.426,0.147-2.158,0c-0.33-0.073-0.695-0.219-0.988-0.366
				l-23.486-13.572c-0.366-0.219-0.732-0.549-0.841-0.951c-0.073-0.33,0.036-0.695,0.256-0.952c0.146-0.219,0.366-0.366,0.585-0.512
				L215.467,60.346z"/>
			<g>
				<path style="fill:#FFFFFF;" d="M128.205,142.492c16.729-10.113,33.934-19.406,50.778-29.322
					c17.007-9.634,46.982-27.442,64.105-36.874c-16.729,10.115-47.032,27.356-63.877,37.27
					C162.203,123.198,145.327,133.058,128.205,142.492z"/>
			</g>
			<g>
				<path style="fill:#FFFFFF;" d="M101.81,127.391c16.73-10.114,33.972-19.406,50.817-29.321
					c17.007-9.634,46.943-27.443,64.066-36.875c-16.729,10.115-47.032,27.356-63.877,37.27
					C135.808,108.097,118.932,117.957,101.81,127.391z"/>
			</g>
			<path style="opacity:0.35;fill:#ADB8E8;" d="M238.919,77.11l-112.066,64.587c-0.11,0.037-0.22,0.073-0.366,0.11
				c-0.219,0.073-0.475,0.073-0.695,0c-0.11-0.037-0.219-0.073-0.329-0.11l-2.049-1.171l112.798-64.989
				C237.09,76.049,238.005,76.561,238.919,77.11z"/>
		</g>
		<g>
			<polygon style="fill:#3B52B5;" points="272.217,100.772 272.217,268.288 152.285,337.416 152.285,169.936 			"/>
			<path style="fill:#172971;" d="M152.285,169.936v167.48c-0.293,0.183-0.622,0.292-0.988,0.366c-0.732,0.183-1.427,0.183-2.159,0
				c-0.329-0.073-0.695-0.183-0.988-0.366l-16.889-9.654c-0.805-0.476-0.841-1.061-0.841-1.17c0-55.79,0-111.507,0-167.26
				c0.11,0.403,0.475,0.732,0.841,0.952l16.889,9.654c0.292,0.147,0.658,0.293,0.988,0.366c0.732,0.146,1.427,0.146,2.159,0
				C151.663,170.229,151.992,170.083,152.285,169.936z"/>
			<path style="fill:#E6E9FF;" d="M268.042,101.584l-114.518,66.054l-2.598,1.5c-0.11,0.037-0.219,0.073-0.366,0.11
				c-0.219,0.074-0.476,0.074-0.695,0c-0.11-0.037-0.219-0.073-0.33-0.11l-2.78-1.61l-13.414-7.642
				c1.098-0.622,2.195-1.28,3.293-1.902c32.23-18.621,82.251-47.397,114.554-66.054c0.476,0.256,0.914,0.548,1.354,0.768v0.036
				c6.549,3.768,5.658,3.142,12.06,6.838C265.737,100.231,266.871,100.889,268.042,101.584z"/>
			<path style="fill:#3B52B5;" d="M252.548,89.544v3.147c-0.439-0.22-0.878-0.512-1.354-0.768
				c-33.4,19.279-84.482,48.677-117.846,67.956l-0.695-0.402c-0.073-0.037-0.146-0.073-0.22-0.147
				c-0.036-0.11-0.073-0.219-0.073-0.329c0.037-0.146,0.183-0.256,0.293-0.329L252.548,89.544z"/>
			<path style="fill:#283D93;" d="M251.194,88.74l1.354,0.805l-119.895,69.128c-0.11,0.073-0.256,0.183-0.293,0.329
				c0,0.11,0.037,0.219,0.073,0.329c0.074,0.074,0.147,0.11,0.22,0.147l0.695,0.402l16.193,9.252c0.11,0.037,0.219,0.073,0.329,0.11
				c0.22,0.074,0.476,0.074,0.695,0c0.146-0.037,0.257-0.073,0.366-0.11l117.115-67.554h0.036l2.743-1.61l1.39,0.805
				l-119.932,69.164c-0.293,0.147-0.622,0.293-0.988,0.366c-0.732,0.146-1.427,0.146-2.159,0c-0.329-0.073-0.695-0.219-0.988-0.366
				l-16.889-9.654c-0.366-0.22-0.732-0.549-0.841-0.952c-0.073-0.329,0.037-0.695,0.256-0.951c0.146-0.219,0.366-0.366,0.585-0.512
				L251.194,88.74z"/>
			<g>
				<path style="fill:#4761C9;" d="M148.151,169.936c-7.714-4.722-8.944-5.33-16.889-9.654
					C138.976,165.006,140.207,165.61,148.151,169.936z"/>
			</g>
			<path style="opacity:0.35;fill:#ADB8E8;" d="M268.042,101.584l-114.518,66.054l-2.598,1.5c-0.11,0.037-0.219,0.073-0.366,0.11
				c-0.219,0.074-0.476,0.074-0.695,0c-0.11-0.037-0.219-0.073-0.33-0.11l-2.78-1.61l117.847-67.956
				C265.737,100.231,266.871,100.889,268.042,101.584z"/>
			<g>
				<path style="fill:#4761C9;" d="M272.217,100.772c-16.709,10.044-52.01,30.236-68.819,40.107
					c-16.952,9.625-33.789,19.446-50.842,28.895c16.708-10.046,33.633-19.717,50.443-29.586
					C219.951,130.564,255.165,110.222,272.217,100.772z"/>
			</g>
			<g>
				<path style="fill:#4761C9;" d="M252.548,89.544c-16.709,10.044-52.01,30.236-68.819,40.107
					c-16.952,9.625-33.789,19.447-50.842,28.895c16.708-10.045,33.633-19.717,50.443-29.586
					C200.281,119.337,235.495,98.994,252.548,89.544z"/>
			</g>
		</g>
	</g>
	<g>
		<g>
			<path style="fill:#3B52B5;" d="M358.701,291.798c0.325,0.188,0.621,0.434,0.888,0.72c0.523,0.582,0.898,1.243,1.144,1.992
				c0.119,0.365,0.177,0.74,0.177,1.124v20.449c0,0.138-0.01,0.276-0.029,0.414c-0.04,0.276-0.138,0.523-0.316,0.75
				c-0.078,0.108-0.187,0.207-0.306,0.267c-40.946,23.645-81.883,47.289-122.83,70.924c0.227-0.138,0.404-0.365,0.503-0.621
				c0.099-0.257,0.128-0.533,0.128-0.809V366.56c0-0.375-0.059-0.75-0.177-1.125c-0.237-0.75-0.621-1.411-1.144-1.993
				c-0.267-0.286-0.563-0.523-0.888-0.72L358.701,291.798z"/>
			<polygon style="fill:#283D93;" points="358.701,291.798 235.852,362.722 152.183,314.417 275.033,243.493 			"/>
			<path style="fill:#030F33;" d="M238.061,366.56v20.448c0,0.276-0.029,0.552-0.128,0.809c-0.098,0.257-0.276,0.484-0.503,0.621
				c0,0.01-0.01,0.01-0.01,0.01c-0.079,0.04-0.158,0.078-0.237,0.098c-0.414,0.128-0.956-0.04-1.332-0.257l-83.669-48.305v-1.539
				l83.669,48.305c0.04,0.02,0.079,0.05,0.119,0.059c0.029,0.02,0.069,0.03,0.098,0.04c0.04,0.01,0.079,0.02,0.109,0.02
				c0.039,0.01,0.069,0.01,0.099,0c0.029,0,0.069,0,0.099-0.01c0.029-0.01,0.059-0.019,0.079-0.029
				c0.03-0.02,0.059-0.029,0.079-0.049c0.02-0.02,0.049-0.04,0.069-0.069c0.02-0.02,0.03-0.05,0.049-0.079
				c0.02-0.03,0.03-0.059,0.04-0.099c0.01-0.029,0.02-0.069,0.03-0.108c0.01-0.039,0.01-0.079,0.02-0.118c0-0.02,0-0.04,0-0.059
				v-0.513V365.79c0-0.05-0.01-0.089-0.01-0.128c-0.01-0.049-0.01-0.099-0.02-0.138c-0.01-0.049-0.02-0.098-0.04-0.148
				c-0.01-0.039-0.029-0.089-0.039-0.138c-0.02-0.049-0.04-0.099-0.059-0.138c-0.03-0.05-0.05-0.099-0.079-0.138
				c-0.02-0.049-0.049-0.099-0.079-0.138c-0.029-0.039-0.059-0.089-0.089-0.128c-0.029-0.04-0.059-0.079-0.098-0.119
				c-0.03-0.039-0.07-0.079-0.099-0.108c-0.04-0.029-0.079-0.069-0.108-0.089c-0.04-0.029-0.079-0.059-0.108-0.089
				c-0.02-0.01-0.039-0.02-0.059-0.03l-81.015-46.776l-2.654-1.529v-1.539l83.669,48.305c0.326,0.198,0.621,0.434,0.888,0.72
				c0.523,0.582,0.907,1.243,1.144,1.993C238.003,365.81,238.061,366.184,238.061,366.56z"/>
			<path style="fill:#E6E9FF;" d="M236.74,365.79v19.945c-27.452-15.852-54.451-31.437-81.903-47.289c0-0.513,0-1.016,0-1.529
				c0-6.471,0-12.952,0-19.433l81.015,46.776c0.02,0.01,0.04,0.02,0.059,0.03c0.029,0.029,0.069,0.059,0.108,0.089
				c0.029,0.02,0.069,0.059,0.108,0.089c0.029,0.029,0.069,0.069,0.099,0.108c0.039,0.04,0.069,0.079,0.098,0.119
				c0.03,0.039,0.059,0.089,0.089,0.128c0.03,0.039,0.059,0.089,0.079,0.138c0.029,0.039,0.049,0.089,0.079,0.138
				c0.02,0.039,0.04,0.089,0.059,0.138c0.01,0.049,0.029,0.099,0.039,0.138c0.02,0.05,0.03,0.099,0.04,0.148
				c0.01,0.04,0.01,0.089,0.02,0.138C236.73,365.701,236.74,365.74,236.74,365.79z"/>
			<path style="fill:#283D93;" d="M236.74,386.249c0,0.02,0,0.04,0,0.059c-0.01,0.039-0.01,0.079-0.02,0.118
				c-0.01,0.04-0.02,0.079-0.03,0.108c-0.01,0.04-0.02,0.069-0.04,0.099c-0.019,0.029-0.029,0.059-0.049,0.079
				c-0.02,0.029-0.049,0.049-0.069,0.069c-0.02,0.02-0.049,0.029-0.079,0.049c-0.02,0.01-0.049,0.02-0.079,0.029
				c-0.03,0.01-0.07,0.01-0.099,0.01c-0.029,0.01-0.059,0.01-0.099,0c-0.029,0-0.069-0.01-0.109-0.02
				c-0.029-0.01-0.069-0.02-0.098-0.04c-0.04-0.01-0.079-0.029-0.119-0.049l-83.669-48.315l2.654-1.529c0,0.512,0,1.016,0,1.529
				c27.452,15.852,54.451,31.437,81.903,47.289V386.249z"/>
		</g>
	</g>
	<path style="opacity:0.35;fill:#ADB8E8;" d="M172.072,306.697l0.242-79.912v-45.472l82.378-46.876
		c0,0,32.648,126.181,35.472,166.555c0.035,0.508-34.725,20.553-34.426,20.381c0.298-0.172-29.123,16.813-29.123,16.813
		L172.072,306.697z"/>
	<g>
		<polygon style="fill:#FFD562;" points="274.52,141.431 300.619,300.297 237.21,336.919 211.111,178.024 		"/>
		<path style="fill:#FFD562;" d="M258.735,136.11l0.956,5.8c-0.986-0.328-1.973-0.657-3.05-1.016l-60.001,34.679l-1.375-0.478
			c-0.089,0-0.149-0.03-0.209-0.06c-0.149-0.06-0.239-0.12-0.359-0.18c-0.089-0.059-0.179-0.149-0.269-0.209
			c-0.059-0.089-0.119-0.179-0.149-0.269c-0.03-0.089-0.06-0.149-0.06-0.239c-0.03-0.119,0-0.179,0.03-0.299
			c0.03-0.119,0.06-0.179,0.12-0.299c0.089-0.089,0.149-0.179,0.239-0.269c0.119-0.119,0.179-0.179,0.329-0.299
			c0.119-0.089,0.239-0.149,0.358-0.239L258.735,136.11z"/>
		<path style="fill:#E6E9FF;" d="M206.478,177.904c-0.18,0.03-0.389,0.06-0.598,0.09c-0.209,0.03-0.419,0.06-0.598,0.06
			c-0.209,0-0.418,0-0.598,0c-0.179,0-0.388-0.03-0.568-0.06c-0.179-0.03-0.328-0.06-0.508-0.09c-0.089-0.03-0.149-0.06-0.239-0.09
			l-6.727-2.242l60.001-34.679c1.076,0.359,2.063,0.688,3.05,1.016c2.063,0.688,3.976,1.345,6.278,2.123l-57.43,33.155
			c-0.12,0.06-0.239,0.119-0.389,0.179c-0.149,0.09-0.328,0.15-0.508,0.239c-0.179,0.06-0.358,0.12-0.568,0.15
			C206.896,177.814,206.687,177.874,206.478,177.904z"/>
		<path style="fill:#FC6C44;" d="M207.075,177.755c0.21-0.03,0.389-0.09,0.568-0.15c0.18-0.089,0.359-0.149,0.508-0.239
			c0.15-0.06,0.269-0.119,0.389-0.179l57.43-33.155l6.009-3.468l2.541,0.867l-63.409,36.593c-0.777,0.448-1.585,0.807-2.452,1.076
			c-1.704,0.508-3.498,0.747-5.291,0.687c-0.897,0-1.764-0.179-2.631-0.448l-8.102-2.721c-0.448-0.15-0.867-0.329-1.255-0.628
			c-0.299-0.209-0.568-0.508-0.717-0.837c-0.03-0.059-0.06-0.149-0.06-0.239c-0.03-0.03-0.03-0.089-0.03-0.119
			c-0.06-0.239-0.03-0.508,0.06-0.748c0.119-0.448,0.418-0.837,0.777-1.166c0.388-0.419,0.867-0.718,1.345-1.016l63.409-36.593
			l2.571,0.837l-63.439,36.622c-0.119,0.09-0.239,0.15-0.358,0.239c-0.15,0.12-0.21,0.18-0.329,0.299
			c-0.09,0.09-0.15,0.18-0.239,0.269c-0.06,0.12-0.09,0.18-0.12,0.299c-0.03,0.12-0.06,0.18-0.03,0.299c0,0.09,0.03,0.15,0.06,0.239
			c0.03,0.09,0.09,0.18,0.149,0.269c0.09,0.06,0.18,0.15,0.269,0.209c0.12,0.06,0.21,0.12,0.359,0.18
			c0.06,0.03,0.12,0.06,0.209,0.06l1.375,0.478l6.727,2.272c0.09,0.03,0.15,0.03,0.239,0.06c0.18,0.03,0.329,0.06,0.508,0.09
			c0.18,0.03,0.389,0.06,0.568,0.06c0.18,0,0.389,0,0.598,0c0.179,0,0.389-0.03,0.598-0.06c0.209-0.03,0.418-0.06,0.598-0.09
			C206.687,177.874,206.896,177.814,207.075,177.755z"/>
		<path style="fill:#DB4B18;" d="M192.636,176.619l8.102,2.721c0.867,0.269,1.734,0.448,2.631,0.448
			c1.794,0.06,3.588-0.179,5.291-0.687c0.867-0.269,1.674-0.628,2.452-1.076l26.099,158.896c-0.777,0.419-1.584,0.777-2.451,1.046
			c-1.734,0.508-3.498,0.747-5.291,0.688c-0.927,0-1.794-0.15-2.631-0.449l-8.102-2.721c-0.389-0.119-0.747-0.298-1.106-0.508
			c-0.269-0.179-0.508-0.388-0.687-0.657c-0.15-0.18-0.24-0.419-0.269-0.658c-8.7-52.915-17.4-105.831-26.069-158.746
			c0,0.09,0.03,0.18,0.06,0.239c0.149,0.329,0.418,0.628,0.717,0.837C191.768,176.29,192.187,176.469,192.636,176.619z"/>
	</g>
</g>
</svg>
